<?xml version="1.0" standalone="no"?><!DOCTYPE svg PUBLIC "-//W3C//DTD SVG 1.1//EN" "http://www.w3.org/Graphics/SVG/1.1/DTD/svg11.dtd"><svg t="1572932915156" class="icon" viewBox="0 0 1024 1024" version="1.1" xmlns="http://www.w3.org/2000/svg" p-id="2104" xmlns:xlink="http://www.w3.org/1999/xlink" width="200" height="200"><defs><style type="text/css"></style></defs><path d="M1023.594496 513.038336c0-6.736896-2.553856-12.865536-6.720512-17.531904l0.023552-0.125952-240.396288-229.999616c0 0-213.30432-204.082176-215.95648-206.6176-16.843776-13.302784-32.780288-17.538048-46.49984-17.328128-13.717504-0.20992-29.656064 4.025344-46.498816 17.328128-2.651136 2.536448-215.95648 206.6176-215.95648 206.6176L11.19744 495.38048l0.023552 0.125952c-4.16768 4.666368-6.720512 10.795008-6.720512 17.531904-4.472832 28.319744 52.422656 36.015104 52.422656 36.015104 45.011968 9.493504 61.389824 27.48416 61.389824 61.389824l0 303.760384c0 33.800192 27.487232 61.200384 61.391872 61.200384l201.355264 0c0.059392 0 0.114688-0.00512 0.172032-0.00512l0.002048 0.00512c33.905664 0 61.391872-27.400192 61.391872-61.200384l0-170.252288 0-9.578496 0.0512 0 0-13.49632c0-27.123712 21.988352-49.112064 49.112064-49.112064l44.619776 0c23.648256 0 43.387904 16.715776 48.058368 38.976512 0.048128 0.231424 0.094208 0.462848 0.13824 0.69632 0.065536 0.338944 0.123904 0.68096 0.182272 1.021952 0.444416 2.654208 0.681984 5.378048 0.681984 8.159232l0 23.332864 0 170.252288c0 33.800192 27.486208 61.200384 61.391872 61.200384l0.002048-0.00512c0.058368 0 0.115712 0.00512 0.172032 0.00512L848.38912 975.404032c33.905664 0 61.39392-27.400192 61.39392-61.200384l0-303.760384c0-33.905664 16.377856-51.89632 61.389824-61.389824C971.172864 549.05344 1028.068352 541.35808 1023.594496 513.038336zM866.506752 583.129088l0 287.939584c0 33.800192 0.13824 61.62432-61.391872 61.200384l-34.916352 0-44.548096 0-34.9184 0c-59.608064 3.495936-61.391872-27.400192-61.391872-61.200384l2.838528-184.476672c-3.785728-31.064064-28.019712-51.88608-54.985728-54.619136l-129.024 0c-26.964992 3.416064-47.444992 23.555072-48.768 54.619136l0.086016 184.476672c0 33.800192 1.235968 61.62432-61.391872 61.200384l-35.82976 0-43.634688 0-35.830784 0c-62.716928 2.471936-61.391872-27.400192-61.391872-61.200384L161.408 581.462016c-5.164032-69.462016-103.474176-74.58304-103.474176-74.58304l192.479232-184.15616c0 0 213.305344-204.082176 215.95648-206.6176 16.841728-13.302784 32.780288-17.538048 46.498816-17.328128 13.719552-0.20992 29.656064 4.025344 46.49984 17.328128 2.65216 2.536448 215.95648 206.6176 215.95648 206.6176l191.545344 183.730176C966.870016 506.452992 865.620992 512 866.506752 583.129088z" p-id="2105"></path></svg>