<?xml version="1.0" standalone="no"?><!DOCTYPE svg PUBLIC "-//W3C//DTD SVG 1.1//EN" "http://www.w3.org/Graphics/SVG/1.1/DTD/svg11.dtd"><svg t="1572940031636" class="icon" viewBox="0 0 1024 1024" version="1.1" xmlns="http://www.w3.org/2000/svg" p-id="7546" xmlns:xlink="http://www.w3.org/1999/xlink" width="200" height="200"><defs><style type="text/css"></style></defs><path d="M1007.802202 548.626662a52.803008 52.803008 0 0 1-75.182122 0l-41.052754-41.686585-4.875624 384.442951c0 69.721423-47.951762 132.616972-116.478656 132.616972h-157.604545V702.940161c0-34.860711 6.850252-55.825895-27.401007-55.825894h-137.05379c-34.251258 0-27.401007 20.965183-27.401007 55.825894l-6.850251 244.268761v69.721423h-157.604545c-68.526895 0-116.503035-62.651768-116.503035-132.373191V514.253513l-48.975643 49.487584a52.77863 52.77863 0 0 1-75.157744 0 54.216939 54.216939 0 0 1 0-76.059734l450.995218-456.602186a49.316937 49.316937 0 0 1 8.288561-6.825873 59.238831 59.238831 0 0 1 6.752739-8.532342 52.803008 52.803008 0 0 1 75.182122 0l450.995217 456.845966a54.265695 54.265695 0 0 1-0.073134 76.059734z" fill="#D41E15" p-id="7547"></path></svg>