<?xml version="1.0" standalone="no"?><!DOCTYPE svg PUBLIC "-//W3C//DTD SVG 1.1//EN" "http://www.w3.org/Graphics/SVG/1.1/DTD/svg11.dtd"><svg t="1572932944747" class="icon" viewBox="0 0 1024 1024" version="1.1" xmlns="http://www.w3.org/2000/svg" p-id="2216" xmlns:xlink="http://www.w3.org/1999/xlink" width="200" height="200"><defs><style type="text/css"></style></defs><path d="M213.333333 85.333333h597.333334a85.333333 85.333333 0 0 1 85.333333 85.333334v682.666666a85.333333 85.333333 0 0 1-85.333333 85.333334H213.333333a85.333333 85.333333 0 0 1-85.333333-85.333334V170.666667a85.333333 85.333333 0 0 1 85.333333-85.333334z m128 213.333334a42.666667 42.666667 0 1 0 0 85.333333h192a42.666667 42.666667 0 0 0 0-85.333333H341.333333z m0 192a42.666667 42.666667 0 0 0 0 85.333333h341.333334a42.666667 42.666667 0 0 0 0-85.333333H341.333333z" fill="#444444" p-id="2217"></path></svg>