<?xml version="1.0" standalone="no"?><!DOCTYPE svg PUBLIC "-//W3C//DTD SVG 1.1//EN" "http://www.w3.org/Graphics/SVG/1.1/DTD/svg11.dtd"><svg t="1572932984946" class="icon" viewBox="0 0 1024 1024" version="1.1" xmlns="http://www.w3.org/2000/svg" p-id="2383" xmlns:xlink="http://www.w3.org/1999/xlink" width="200" height="200"><defs><style type="text/css"></style></defs><path d="M1015.398034 980.647649c-37.071242-196.868845-186.82972-353.951871-379.713225-401.690963 105.300226-47.195358 178.657315-152.917464 178.657315-275.783088 0-166.83134-135.243525-302.074865-302.074865-302.074865s-302.074865 135.243525-302.074865 302.074865c0 122.865623 73.357089 228.58773 178.656291 275.783088-192.669493 47.686869-342.312261 204.474988-379.589323 401.035614-8.982375 41.513278 36.878733 44.014868 36.878733 44.014868l932.260376 0C978.396423 1024.007168 1021.015603 1024.007168 1015.398034 980.647649zM253.199664 303.173598c0-143.080064 115.987532-259.067596 259.067596-259.067596 143.07904 0 259.067596 115.987532 259.067596 259.067596s-115.988556 259.067596-259.067596 259.067596C369.187196 562.241194 253.199664 446.252638 253.199664 303.173598zM52.913788 980.999899c43.905302-213.479891 232.878217-374.015786 459.353471-374.015786 226.47423 0 415.447145 160.534871 459.353471 374.015786L52.913788 980.999899z" p-id="2384"></path></svg>