<?xml version="1.0" standalone="no"?><!DOCTYPE svg PUBLIC "-//W3C//DTD SVG 1.1//EN" "http://www.w3.org/Graphics/SVG/1.1/DTD/svg11.dtd"><svg t="1572933051044" class="icon" viewBox="0 0 1024 1024" version="1.1" xmlns="http://www.w3.org/2000/svg" p-id="2548" xmlns:xlink="http://www.w3.org/1999/xlink" width="200" height="200"><defs><style type="text/css"></style></defs><path d="M414 471.7c-14.1 0-25.6-11.5-25.6-25.6s11.5-25.6 25.6-25.6h291c14.1 0 25.6 11.5 25.6 25.6s-11.5 25.6-25.6 25.6H414zM73.9 153.4h-48C11.8 153.4 0.3 141.9 0.3 127.8s11.5-25.6 25.6-25.6h49.5c35.9 1.4 65.6 11.4 88.2 30.5 16.3 13.8 27.8 34.3 36.1 59.5 5.3 16 8.7 32 10.6 45.4L253 540.5c9.7 69.1 66.4 124.9 124.1 124.9H742c57.6 0 114.4-55.8 124.1-124.9L897 320.1c9.2-65.3-40.2-117.8-112.7-117.8H389.5c-14.1 0-25.6-11.5-25.6-25.6s11.5-25.6 25.6-25.6h394.8c102.7 0 177 79.1 163.4 176.1l-30.9 220.4c-13.1 93.2-90.2 169-174.8 169H377c-84.6 0-161.7-75.8-174.8-169l-42.5-302.9c-1.5-10.6-4.3-23.7-8.5-36.4-5.7-17.1-12.9-30-20.5-36.4-13.1-11.1-31.8-17.5-56.8-18.5z m720 768c28.3 0 51.2-22.9 51.2-51.2S822.2 819 793.9 819s-51.2 22.9-51.2 51.2 23 51.2 51.2 51.2z m0 51.2c-56.6 0-102.4-45.8-102.4-102.4 0-56.6 45.8-102.4 102.4-102.4 56.6 0 102.4 45.8 102.4 102.4 0 56.5-45.8 102.4-102.4 102.4z m-486.4-51.2c28.3 0 51.2-22.9 51.2-51.2S335.8 819 307.5 819s-51.2 22.9-51.2 51.2 23 51.2 51.2 51.2z m0 51.2c-56.6 0-102.4-45.8-102.4-102.4 0-56.6 45.8-102.4 102.4-102.4s102.4 45.8 102.4 102.4c0 56.5-45.8 102.4-102.4 102.4z" fill="#666666" p-id="2549"></path></svg>